<svg width="5" height="21" viewBox="0 0 5 21" fill="none" xmlns="http://www.w3.org/2000/svg">
<path d="M4.84375 18.3125C4.84375 18.9341 4.59682 19.5302 4.15728 19.9698C3.71774 20.4093 3.1216 20.6562 2.5 20.6562C1.8784 20.6562 1.28226 20.4093 0.842718 19.9698C0.40318 19.5302 0.15625 18.9341 0.15625 18.3125C0.15625 17.6909 0.40318 17.0948 0.842718 16.6552C1.28226 16.2157 1.8784 15.9688 2.5 15.9688C3.1216 15.9688 3.71774 16.2157 4.15728 16.6552C4.59682 17.0948 4.84375 17.6909 4.84375 18.3125ZM4.84375 10.5C4.84375 11.1216 4.59682 11.7177 4.15728 12.1573C3.71774 12.5968 3.1216 12.8438 2.5 12.8438C1.8784 12.8438 1.28226 12.5968 0.842718 12.1573C0.40318 11.7177 0.15625 11.1216 0.15625 10.5C0.15625 9.8784 0.40318 9.28226 0.842718 8.84272C1.28226 8.40318 1.8784 8.15625 2.5 8.15625C3.1216 8.15625 3.71774 8.40318 4.15728 8.84272C4.59682 9.28226 4.84375 9.8784 4.84375 10.5ZM4.84375 2.6875C4.84375 3.3091 4.59682 3.90524 4.15728 4.34478C3.71774 4.78432 3.1216 5.03125 2.5 5.03125C1.8784 5.03125 1.28226 4.78432 0.842718 4.34478C0.40318 3.90524 0.15625 3.3091 0.15625 2.6875C0.15625 2.0659 0.40318 1.46976 0.842718 1.03022C1.28226 0.59068 1.8784 0.34375 2.5 0.34375C3.1216 0.34375 3.71774 0.59068 4.15728 1.03022C4.59682 1.46976 4.84375 2.0659 4.84375 2.6875Z" fill="black"/>
</svg>
